<?xml version="1.0" encoding="utf-8"?>
<!-- Generated by Mocodo 4.3.2 -->
<svg width="443" height="701" viewBox="0 0 443 701" xmlns="http://www.w3.org/2000/svg">
<rect x="0" y="0" width="443" height="701" fill="#ffffbf" stroke="none" stroke-width="0"/>

<!-- Association PUBLIE -->
<g>
	<line x1="65" y1="77" x2="234" y2="77" stroke="#66c2a5" stroke-width="2"/>
	<line x1="65" y1="347" x2="234" y2="77" stroke="#66c2a5" stroke-width="2"/>
	<g>
		<path d="M250 52 a14 14 90 0 1 14 14 V77 h-60 V66 a14 14 90 0 1 14 -14" fill="#abdda4" stroke="#abdda4" stroke-width="0"/>
		<path d="M264 77 v11 a14 14 90 0 1 -14 14 H218 a14 14 90 0 1 -14 -14 V77 H60" fill="#e6f598" stroke="#e6f598" stroke-width="0"/>
		<rect x="204" y="52" width="60" height="50" fill="none" rx="14" stroke="#66c2a5" stroke-width="2"/>
		<line x1="204" y1="77" x2="264" y2="77" stroke="#66c2a5" stroke-width="1"/>
		<text x="212" y="69.75" fill="#000000" font-family="Verdana" font-size="12">PUBLIE</text>
	</g>
	<text x="106" y="94" fill="#d53e4f" font-family="Verdana" font-size="12">0,N</text>
	<text x="86.39" y="271" fill="#d53e4f" font-family="Verdana" font-size="12">1,1</text>
</g>

<!-- Association CLASSIFIE -->
<g>
	<line x1="65" y1="212" x2="234" y2="212" stroke="#66c2a5" stroke-width="2"/>
	<line x1="65" y1="347" x2="234" y2="212" stroke="#66c2a5" stroke-width="2"/>
	<g>
		<path d="M260 187 a14 14 90 0 1 14 14 V212 h-80 V201 a14 14 90 0 1 14 -14" fill="#abdda4" stroke="#abdda4" stroke-width="0"/>
		<path d="M274 212 v11 a14 14 90 0 1 -14 14 H208 a14 14 90 0 1 -14 -14 V212 H80" fill="#e6f598" stroke="#e6f598" stroke-width="0"/>
		<rect x="194" y="187" width="80" height="50" fill="none" rx="14" stroke="#66c2a5" stroke-width="2"/>
		<line x1="194" y1="212" x2="274" y2="212" stroke="#66c2a5" stroke-width="1"/>
		<text x="202" y="204.75" fill="#000000" font-family="Verdana" font-size="12">CLASSIFIE</text>
	</g>
	<text x="124" y="229" fill="#d53e4f" font-family="Verdana" font-size="12">0,N</text>
	<text x="126" y="313.31" fill="#d53e4f" font-family="Verdana" font-size="12">1,1</text>
</g>

<!-- Association GENERE -->
<g>
	<line x1="65" y1="347" x2="234" y2="347" stroke="#66c2a5" stroke-width="2"/>
	<line x1="366" y1="347" x2="234" y2="347" stroke="#66c2a5" stroke-width="2"/>
	<g>
		<path d="M252 322 a14 14 90 0 1 14 14 V347 h-64 V336 a14 14 90 0 1 14 -14" fill="#abdda4" stroke="#abdda4" stroke-width="0"/>
		<path d="M266 347 v11 a14 14 90 0 1 -14 14 H216 a14 14 90 0 1 -14 -14 V347 H64" fill="#e6f598" stroke="#e6f598" stroke-width="0"/>
		<rect x="202" y="322" width="64" height="50" fill="none" rx="14" stroke="#66c2a5" stroke-width="2"/>
		<line x1="202" y1="347" x2="266" y2="347" stroke="#66c2a5" stroke-width="1"/>
		<text x="209" y="339.75" fill="#000000" font-family="Verdana" font-size="12">GENERE</text>
	</g>
	<text x="126" y="364" fill="#d53e4f" font-family="Verdana" font-size="12">0,N</text>
	<text x="272" y="364" fill="#d53e4f" font-family="Verdana" font-size="12">1,1</text>
</g>

<!-- Association PERCOIT_L -->
<g>
	<line x1="65" y1="347" x2="65" y2="490" stroke="#66c2a5" stroke-width="2"/>
	<line x1="234" y1="490" x2="65" y2="490" stroke="#66c2a5" stroke-width="2"/>
	<g>
		<path d="M93 465 a14 14 90 0 1 14 14 V490 h-84 V479 a14 14 90 0 1 14 -14" fill="#abdda4" stroke="#abdda4" stroke-width="0"/>
		<path d="M107 490 v11 a14 14 90 0 1 -14 14 H37 a14 14 90 0 1 -14 -14 V490 H84" fill="#e6f598" stroke="#e6f598" stroke-width="0"/>
		<rect x="23" y="465" width="84" height="50" fill="none" rx="14" stroke="#66c2a5" stroke-width="2"/>
		<line x1="23" y1="490" x2="107" y2="490" stroke="#66c2a5" stroke-width="1"/>
		<text x="31" y="482.75" fill="#000000" font-family="Verdana" font-size="12">PERCOIT_L</text>
	</g>
	<text x="38" y="432" fill="#d53e4f" font-family="Verdana" font-size="12">0,N</text>
	<text x="153" y="507" fill="#d53e4f" font-family="Verdana" font-size="12">1,1</text>
</g>

<!-- Association PERCOIT_A -->
<g>
	<line x1="234" y1="490" x2="366" y2="490" stroke="#66c2a5" stroke-width="2"/>
	<line x1="65" y1="616" x2="366" y2="490" stroke="#66c2a5" stroke-width="2"/>
	<g>
		<path d="M394 465 a14 14 90 0 1 14 14 V490 h-84 V479 a14 14 90 0 1 14 -14" fill="#abdda4" stroke="#abdda4" stroke-width="0"/>
		<path d="M408 490 v11 a14 14 90 0 1 -14 14 H338 a14 14 90 0 1 -14 -14 V490 H84" fill="#e6f598" stroke="#e6f598" stroke-width="0"/>
		<rect x="324" y="465" width="84" height="50" fill="none" rx="14" stroke="#66c2a5" stroke-width="2"/>
		<line x1="324" y1="490" x2="408" y2="490" stroke="#66c2a5" stroke-width="1"/>
		<text x="331" y="482.75" fill="#000000" font-family="Verdana" font-size="12">PERCOIT_A</text>
	</g>
	<text x="294" y="507" fill="#d53e4f" font-family="Verdana" font-size="12">1,1</text>
	<text x="122" y="607.95" fill="#d53e4f" font-family="Verdana" font-size="12">0,N</text>
</g>

<!-- Association CONTRAT -->
<g>
	<line x1="65" y1="616" x2="234" y2="616" stroke="#66c2a5" stroke-width="2"/>
	<line x1="65" y1="347" x2="234" y2="616" stroke="#66c2a5" stroke-width="2"/>
	<g>
		<path d="M305 574 a14 14 90 0 1 14 14 V599 h-170 V588 a14 14 90 0 1 14 -14" fill="#abdda4" stroke="#abdda4" stroke-width="0"/>
		<path d="M319 599 v45 a14 14 90 0 1 -14 14 H163 a14 14 90 0 1 -14 -14 V599 H170" fill="#e6f598" stroke="#e6f598" stroke-width="0"/>
		<rect x="149" y="574" width="170" height="84" fill="none" rx="14" stroke="#66c2a5" stroke-width="2"/>
		<line x1="149" y1="599" x2="319" y2="599" stroke="#66c2a5" stroke-width="1"/>
		<text x="205" y="591.75" fill="#000000" font-family="Verdana" font-size="12">CONTRAT</text>
		<text x="156" y="616.8" fill="#000000" font-family="Verdana" font-size="12">pourcentage_contribution</text>
		<text x="156" y="633.8" fill="#000000" font-family="Verdana" font-size="12">taux_redevance</text>
		<text x="156" y="650.8" fill="#000000" font-family="Verdana" font-size="12">date_signature</text>
	</g>
	<text x="122" y="633" fill="#d53e4f" font-family="Verdana" font-size="12">1,N</text>
	<text x="85.57" y="432" fill="#d53e4f" font-family="Verdana" font-size="12">1,N</text>
</g>

<!-- Entity EDITEUR -->
<g>
	<g>
		<rect x="29" y="9" width="72" height="25" fill="#fdae61" stroke="none" stroke-width="0" opacity="1"/>
		<rect x="29" y="34" width="72" height="111" fill="#fee08b" stroke="none" stroke-width="0" opacity="1"/>
		<rect x="29" y="9" width="72" height="136" fill="none" stroke="#f46d43" stroke-width="2" opacity="1"/>
		<line x1="29" y1="34" x2="101" y2="34" stroke="#f46d43" stroke-width="1"/>
	</g>
	<text x="38" y="26.75" fill="#000000" font-family="Verdana" font-size="12">EDITEUR</text>
	<text x="34" y="51.8" fill="#000000" font-family="Verdana" font-size="12">id_editeur</text>
	<line x1="34" y1="54" x2="96" y2="54" stroke="#000000" stroke-width="1"/>
	<text x="34" y="68.8" fill="#000000" font-family="Verdana" font-size="12">nom</text>
	<text x="34" y="85.8" fill="#000000" font-family="Verdana" font-size="12">siret</text>
	<text x="34" y="102.8" fill="#000000" font-family="Verdana" font-size="12">adresse</text>
	<text x="34" y="119.8" fill="#000000" font-family="Verdana" font-size="12">telephone</text>
	<text x="34" y="136.8" fill="#000000" font-family="Verdana" font-size="12">email</text>
</g>

<!-- Entity TYPE_OUVRAGE -->
<g>
	<g>
		<rect x="11" y="170" width="108" height="25" fill="#fdae61" stroke="none" stroke-width="0" opacity="1"/>
		<rect x="11" y="195" width="108" height="59" fill="#fee08b" stroke="none" stroke-width="0" opacity="1"/>
		<rect x="11" y="170" width="108" height="84" fill="none" stroke="#f46d43" stroke-width="2" opacity="1"/>
		<line x1="11" y1="195" x2="119" y2="195" stroke="#f46d43" stroke-width="1"/>
	</g>
	<text x="16" y="187.75" fill="#000000" font-family="Verdana" font-size="12">TYPE_OUVRAGE</text>
	<text x="16" y="212.8" fill="#000000" font-family="Verdana" font-size="12">id_type</text>
	<line x1="16" y1="215" x2="62" y2="215" stroke="#000000" stroke-width="1"/>
	<text x="16" y="229.8" fill="#000000" font-family="Verdana" font-size="12">libelle</text>
	<text x="16" y="246.8" fill="#000000" font-family="Verdana" font-size="12">description</text>
</g>

<!-- Entity LIVRE -->
<g>
	<g>
		<rect x="9" y="279" width="112" height="25" fill="#fdae61" stroke="none" stroke-width="0" opacity="1"/>
		<rect x="9" y="304" width="112" height="111" fill="#fee08b" stroke="none" stroke-width="0" opacity="1"/>
		<rect x="9" y="279" width="112" height="136" fill="none" stroke="#f46d43" stroke-width="2" opacity="1"/>
		<line x1="9" y1="304" x2="121" y2="304" stroke="#f46d43" stroke-width="1"/>
	</g>
	<text x="47" y="296.75" fill="#000000" font-family="Verdana" font-size="12">LIVRE</text>
	<text x="14" y="321.8" fill="#000000" font-family="Verdana" font-size="12">id_livre</text>
	<line x1="14" y1="324" x2="59" y2="324" stroke="#000000" stroke-width="1"/>
	<text x="14" y="338.8" fill="#000000" font-family="Verdana" font-size="12">isbn</text>
	<text x="14" y="355.8" fill="#000000" font-family="Verdana" font-size="12">titre</text>
	<text x="14" y="372.8" fill="#000000" font-family="Verdana" font-size="12">date_publication</text>
	<text x="14" y="389.8" fill="#000000" font-family="Verdana" font-size="12">prix_public_ttc</text>
	<text x="14" y="406.8" fill="#000000" font-family="Verdana" font-size="12">nb_pages</text>
</g>

<!-- Entity VENTE_MENSUELLE -->
<g>
	<g>
		<rect x="298" y="288" width="136" height="25" fill="#fdae61" stroke="none" stroke-width="0" opacity="1"/>
		<rect x="298" y="313" width="136" height="93" fill="#fee08b" stroke="none" stroke-width="0" opacity="1"/>
		<rect x="298" y="288" width="136" height="118" fill="none" stroke="#f46d43" stroke-width="2" opacity="1"/>
		<line x1="298" y1="313" x2="434" y2="313" stroke="#f46d43" stroke-width="1"/>
	</g>
	<text x="306" y="305.75" fill="#000000" font-family="Verdana" font-size="12">VENTE_MENSUELLE</text>
	<text x="303" y="330.8" fill="#000000" font-family="Verdana" font-size="12">id_vente</text>
	<line x1="303" y1="333" x2="356" y2="333" stroke="#000000" stroke-width="1"/>
	<text x="303" y="347.8" fill="#000000" font-family="Verdana" font-size="12">mois</text>
	<text x="303" y="364.8" fill="#000000" font-family="Verdana" font-size="12">annee</text>
	<text x="303" y="381.8" fill="#000000" font-family="Verdana" font-size="12">exemplaires_vendus</text>
	<text x="303" y="398.8" fill="#000000" font-family="Verdana" font-size="12">chiffre_affaires</text>
</g>

<!-- Entity REDEVANCE -->
<g>
	<g>
		<rect x="179" y="431" width="110" height="25" fill="#fdae61" stroke="none" stroke-width="0" opacity="1"/>
		<rect x="179" y="456" width="110" height="93" fill="#fee08b" stroke="none" stroke-width="0" opacity="1"/>
		<rect x="179" y="431" width="110" height="118" fill="none" stroke="#f46d43" stroke-width="2" opacity="1"/>
		<line x1="179" y1="456" x2="289" y2="456" stroke="#f46d43" stroke-width="1"/>
	</g>
	<text x="197" y="448.75" fill="#000000" font-family="Verdana" font-size="12">REDEVANCE</text>
	<text x="184" y="473.8" fill="#000000" font-family="Verdana" font-size="12">id_redevance</text>
	<line x1="184" y1="476" x2="266" y2="476" stroke="#000000" stroke-width="1"/>
	<text x="184" y="490.8" fill="#000000" font-family="Verdana" font-size="12">mois</text>
	<text x="184" y="507.8" fill="#000000" font-family="Verdana" font-size="12">annee</text>
	<text x="184" y="524.8" fill="#000000" font-family="Verdana" font-size="12">montant_calcule</text>
	<text x="184" y="541.8" fill="#000000" font-family="Verdana" font-size="12">date_calcul</text>
</g>

<!-- Entity AUTEUR -->
<g>
	<g>
		<rect x="13" y="540" width="104" height="25" fill="#fdae61" stroke="none" stroke-width="0" opacity="1"/>
		<rect x="13" y="565" width="104" height="127" fill="#fee08b" stroke="none" stroke-width="0" opacity="1"/>
		<rect x="13" y="540" width="104" height="152" fill="none" stroke="#f46d43" stroke-width="2" opacity="1"/>
		<line x1="13" y1="565" x2="117" y2="565" stroke="#f46d43" stroke-width="1"/>
	</g>
	<text x="40" y="557.75" fill="#000000" font-family="Verdana" font-size="12">AUTEUR</text>
	<text x="18" y="582.8" fill="#000000" font-family="Verdana" font-size="12">id_auteur</text>
	<line x1="18" y1="585" x2="77" y2="585" stroke="#000000" stroke-width="1"/>
	<text x="18" y="599.8" fill="#000000" font-family="Verdana" font-size="12">nom</text>
	<text x="18" y="616.8" fill="#000000" font-family="Verdana" font-size="12">prenom</text>
	<text x="18" y="633.8" fill="#000000" font-family="Verdana" font-size="12">email</text>
	<text x="18" y="650.8" fill="#000000" font-family="Verdana" font-size="12">iban</text>
	<text x="18" y="667.8" fill="#000000" font-family="Verdana" font-size="12">date_naissance</text>
	<text x="18" y="684.8" fill="#000000" font-family="Verdana" font-size="12">nationalite</text>
</g>
</svg>